<?xml version="1.0" encoding="UTF-8" standalone="no"?>
<svg
   xmlns:dc="http://purl.org/dc/elements/1.1/"
   xmlns:cc="http://creativecommons.org/ns#"
   xmlns:rdf="http://www.w3.org/1999/02/22-rdf-syntax-ns#"
   xmlns:svg="http://www.w3.org/2000/svg"
   xmlns="http://www.w3.org/2000/svg"
   viewBox="0 0 100 149.552"
   height="149.552"
   width="100"
   xml:space="preserve"
   id="svg2"
   version="1.1"><metadata
     id="metadata8"><rdf:RDF><cc:Work
         rdf:about=""><dc:format>image/svg+xml</dc:format><dc:type
           rdf:resource="http://purl.org/dc/dcmitype/StillImage" /></cc:Work></rdf:RDF></metadata><defs
     id="defs6"><clipPath
       id="clipPath18"
       clipPathUnits="userSpaceOnUse"><path
         id="path16"
         d="M 0,112.164 H 75 V 0 H 0 Z" /></clipPath></defs><g
     transform="matrix(1.3333333,0,0,-1.3333333,0,149.552)"
     id="g10"><g
       id="g12"><g
         clip-path="url(#clipPath18)"
         id="g14"><g
           transform="translate(57.3018,44.1655)"
           id="g20"><path
             id="path22"
             style="fill:#25852d;fill-opacity:1;fill-rule:evenodd;stroke:none"
             d="m 0,0 13.693,-32.591 -9.27,3.516 -3.93,-14.978 -13.694,37.02 0.911,3.975 4.355,-3.097 0.492,4.394 4.845,-2.215 v 4.432 z m -39.606,0.456 -13.693,-32.169 9.267,3.516 3.936,-15.432 13.694,37.02 -2.249,3.551 -3.091,-3.097 -1.753,4.853 -3.512,-2.674 -1.335,5.312 z M -19.802,59.52 C -3.931,59.52 9.27,46.302 9.27,29.987 9.27,14.13 -3.931,0.878 -19.802,0.878 c -16.294,0 -29.074,13.252 -29.074,29.109 0,16.315 12.78,29.533 29.074,29.533 m 0,8.367 3.089,-4.395 2.67,3.939 2.596,-4.853 3.091,3.551 1.755,-5.307 4.003,2.67 0.844,-5.308 4,2.213 V 55.091 L 6.601,56.847 5.758,51.15 10.605,52.452 8.849,47.18 h 4.844 l -2.67,-4.853 4.848,-0.456 -3.019,-4.395 4.354,-1.337 -3.934,-3.972 4.426,-2.18 -4.426,-3.093 3.934,-2.638 -4.847,-2.634 3.512,-3.098 -5.266,-1.755 3.088,-3.552 -5.758,-0.877 2.67,-4.395 H 4.847 L 6.601,3.551 1.334,4.429 2.246,0 l -5.334,1.336 0.49,-4.853 -5.337,2.636 -0.421,-4.85 -4.424,3.551 -1.263,-4.853 -4.005,3.975 -1.754,-4.432 -3.512,4.432 -2.67,-3.975 -2.177,4.853 -3.581,-3.551 -1.753,5.307 -3.512,-3.093 L -37.85,2.214 -41.854,0 v 5.307 l -4.845,-1.756 0.914,5.731 -4.423,-1.337 1.753,5.272 h -4.844 l 2.176,4.854 -4.354,0.453 3.092,4.397 -4.427,1.335 3.513,3.941 -4.003,1.79 4.424,3.516 -3.934,2.636 4.845,2.671 -3.51,3.061 5.269,1.793 -3.091,3.516 5.268,0.878 -2.177,4.394 h 5.265 l -1.756,4.395 5.759,-0.878 -0.914,4.428 5.268,-1.336 -0.421,4.431 4.846,-2.216 0.419,4.853 4.847,-3.551 0.911,4.853 3.934,-3.939 z m 0,-20.286 c 9.271,0 17.204,-7.945 17.204,-17.614 0,-9.282 -7.933,-17.191 -17.204,-17.191 -9.691,0 -17.205,7.909 -17.205,17.191 0,9.669 7.514,17.614 17.205,17.614 m 0,9.246 c 14.536,0 26.403,-11.882 26.403,-26.86 0,-14.555 -11.867,-26.436 -26.403,-26.436 -14.535,0 -26.897,11.881 -26.897,26.436 0,14.978 12.362,26.86 26.897,26.86 m 0,-10.545 c 8.847,0 16.29,-7.068 16.29,-16.315 0,-8.824 -7.443,-15.857 -16.29,-15.857 -9.27,0 -16.294,7.033 -16.294,15.857 0,9.247 7.024,16.315 16.294,16.315" /></g></g></g></g></svg>