<?xml version="1.0" encoding="UTF-8" standalone="no"?>
<svg
   xmlns:dc="http://purl.org/dc/elements/1.1/"
   xmlns:cc="http://creativecommons.org/ns#"
   xmlns:rdf="http://www.w3.org/1999/02/22-rdf-syntax-ns#"
   xmlns:svg="http://www.w3.org/2000/svg"
   xmlns="http://www.w3.org/2000/svg"
   viewBox="0 0 100 95.112534"
   height="95.112534"
   width="100"
   xml:space="preserve"
   id="svg2"
   version="1.1"><metadata
     id="metadata8"><rdf:RDF><cc:Work
         rdf:about=""><dc:format>image/svg+xml</dc:format><dc:type
           rdf:resource="http://purl.org/dc/dcmitype/StillImage" /></cc:Work></rdf:RDF></metadata><defs
     id="defs6" /><g
     transform="matrix(1.3333333,0,0,-1.3333333,0,95.112533)"
     id="g10"><g
       transform="translate(37.5003,32.1903)"
       id="g12"><path
         id="path14"
         style="fill:#14822c;fill-opacity:1;fill-rule:nonzero;stroke:none"
         d="M 0,0 19.597,-11.312 18.75,-6.382 37.499,11.894 24,13.858 Z" /></g><g
       transform="translate(37.4999,71.334)"
       id="g16"><path
         id="path18"
         style="fill:#159a34;fill-opacity:1;fill-rule:nonzero;stroke:none"
         d="M 0,0 -11.592,-23.483 -24.002,-25.285 0,-39.144 24.001,-25.285 11.588,-23.483 0.001,0 Z" /></g><g
       transform="translate(17.9037,20.871)"
       id="g20"><path
         id="path22"
         style="fill:#0b6822;fill-opacity:1;fill-rule:nonzero;stroke:none"
         d="M 0,0 -3.581,-20.871 19.597,-8.683 42.771,-20.871 39.193,0.004 19.597,11.319 Z" /></g><g
       transform="translate(0,44.0847)"
       id="g24"><path
         id="path26"
         style="fill:#14822c;fill-opacity:1;fill-rule:nonzero;stroke:none"
         d="M 0,0 18.75,-18.276 17.904,-23.214 37.5,-11.894 13.498,1.964 Z" /></g></g></svg>