<?xml version="1.0" encoding="UTF-8" standalone="no"?>
<svg
   xmlns:dc="http://purl.org/dc/elements/1.1/"
   xmlns:cc="http://creativecommons.org/ns#"
   xmlns:rdf="http://www.w3.org/1999/02/22-rdf-syntax-ns#"
   xmlns:svg="http://www.w3.org/2000/svg"
   xmlns="http://www.w3.org/2000/svg"
   viewBox="0 0 100 99.98587"
   height="99.98587"
   width="100"
   xml:space="preserve"
   id="svg2"
   version="1.1"><metadata
     id="metadata8"><rdf:RDF><cc:Work
         rdf:about=""><dc:format>image/svg+xml</dc:format><dc:type
           rdf:resource="http://purl.org/dc/dcmitype/StillImage" /></cc:Work></rdf:RDF></metadata><defs
     id="defs6"><clipPath
       id="clipPath18"
       clipPathUnits="userSpaceOnUse"><path
         id="path16"
         d="M 0,74.989 H 75 V 0 H 0 Z" /></clipPath></defs><g
     transform="matrix(1.3333333,0,0,-1.3333333,0,99.985867)"
     id="g10"><g
       id="g12"><g
         clip-path="url(#clipPath18)"
         id="g14"><g
           transform="translate(60.0071,28.3321)"
           id="g20"><path
             id="path22"
             style="fill:#14822c;fill-opacity:1;fill-rule:evenodd;stroke:none"
             d="m 0,0 c -1.102,-0.618 -1.451,-1.298 -1.38,-2.452 0.071,-2.143 0,-4.226 0,-6.903 -1.895,2.142 -3.535,3.915 -5.069,5.791 -0.679,0.761 -1.329,1.112 -2.452,1.029 -3.431,-0.268 -6.8,0.268 -9.953,1.731 -0.423,0.186 -0.938,0.289 -1.194,0.908 4.832,2.266 8.869,5.358 9.972,10.944 0.689,3.379 -0.082,6.553 -2.299,9.334 2.359,0.826 4.71,0.332 7.027,-0.143 C -0.751,19.209 3.03,16.983 5.4,12.718 6.936,7.069 5.275,2.988 0,0 m -32.991,-0.68 c -1.061,0.062 -1.793,-0.206 -2.473,-1.029 -1.813,-2.268 -3.74,-4.412 -5.595,-6.575 -1.041,-0.618 -0.762,0.288 -0.762,0.701 -0.021,2.431 -0.073,4.78 0.041,7.171 0.031,1.259 -0.32,2.102 -1.525,2.617 -1.927,0.907 -3.565,2.37 -4.925,4.021 -3.843,4.697 -3.596,10.695 0.566,15.125 3.318,3.506 7.533,5.298 12.231,5.999 7.81,1.114 14.942,-0.413 20.875,-5.999 4.885,-5.809 3.617,-11.396 0.411,-15.25 -1.895,-2.266 -4.275,-3.792 -6.964,-4.987 -3.823,-1.587 -7.801,-2.123 -11.88,-1.794 m 10.488,47.343 c -20.73,0 -37.504,-16.758 -37.504,-37.47 0,-20.776 16.774,-37.53 37.504,-37.53 20.711,0 37.496,16.754 37.496,37.53 0,20.712 -16.785,37.47 -37.496,37.47" /></g></g></g></g></svg>