<?xml version="1.0" encoding="UTF-8" standalone="no"?>
<svg
   xmlns:dc="http://purl.org/dc/elements/1.1/"
   xmlns:cc="http://creativecommons.org/ns#"
   xmlns:rdf="http://www.w3.org/1999/02/22-rdf-syntax-ns#"
   xmlns:svg="http://www.w3.org/2000/svg"
   xmlns="http://www.w3.org/2000/svg"
   viewBox="0 0 100 132.21933"
   height="132.21933"
   width="100"
   xml:space="preserve"
   id="svg2"
   version="1.1"><metadata
     id="metadata8"><rdf:RDF><cc:Work
         rdf:about=""><dc:format>image/svg+xml</dc:format><dc:type
           rdf:resource="http://purl.org/dc/dcmitype/StillImage" /></cc:Work></rdf:RDF></metadata><defs
     id="defs6"><clipPath
       id="clipPath18"
       clipPathUnits="userSpaceOnUse"><path
         id="path16"
         d="M 0,99.164 H 75 V 0 H 0 Z" /></clipPath></defs><g
     transform="matrix(1.3333333,0,0,-1.3333333,0,132.21933)"
     id="g10"><g
       id="g12"><g
         clip-path="url(#clipPath18)"
         id="g14"><g
           transform="translate(61.4321,49.0186)"
           id="g20"><path
             id="path22"
             style="fill:#25852d;fill-opacity:1;fill-rule:evenodd;stroke:none"
             d="m 0,0 c -2.199,-11.895 -12.1,-20.617 -24.04,-21.059 -1.455,-0.054 -2.313,-0.494 -2.974,-1.797 -0.75,-1.481 -1.735,-2.834 -2.553,-4.281 -0.504,-0.892 -1.055,-1.052 -1.933,-0.536 -4.229,2.484 -3.833,1.463 -1.624,5.526 1.36,2.499 2.799,4.956 4.288,7.376 0.399,0.65 1.04,1.212 1.688,1.624 4.126,2.623 8.287,5.187 12.43,7.781 1.931,1.209 1.928,1.894 -0.014,2.999 -3.599,2.049 -7.208,4.083 -10.813,6.123 -3.698,2.093 -7.39,4.197 -11.095,6.273 -1.691,0.947 -2.351,0.547 -2.3,-1.402 0.129,-5.069 0.331,-10.138 0.406,-15.209 0.014,-0.969 -0.254,-2.027 -0.672,-2.903 -1.484,-3.102 -3.125,-6.125 -4.63,-9.215 -0.595,-1.219 -1.243,-1.351 -2.353,-0.674 -3.466,2.113 -3.712,1.348 -1.488,5.17 1.484,2.548 1.637,4.473 0.141,7.275 -5.232,9.794 -3.376,21.745 4.158,29.799 7.367,7.877 18.946,10.176 28.755,5.711 C -3.876,23.689 2.189,11.835 0,0 m -36.797,5.471 c -0.016,0.573 0.02,1.15 0.038,2.032 6.789,-3.842 13.331,-7.545 20.183,-11.422 -0.666,-0.478 -1.107,-0.829 -1.581,-1.127 -3.46,-2.169 -6.954,-4.285 -10.372,-6.523 -0.844,-0.552 -1.602,-1.389 -2.133,-2.264 -1.888,-3.112 -3.7,-6.275 -5.459,-9.467 -0.595,-1.08 -1.196,-1.15 -2.145,-0.55 -1.03,0.652 -2.092,1.264 -3.184,1.799 -1.101,0.538 -1.281,1.157 -0.679,2.282 1.723,3.212 3.391,6.456 4.969,9.745 0.441,0.919 0.694,2.034 0.685,3.056 -0.035,4.147 -0.209,8.292 -0.322,12.439 m 4.92,-36.049 c -0.531,0.116 -1.077,0.183 -1.59,0.352 -5.569,1.84 -11.129,3.703 -16.696,5.545 -2.372,0.785 -2.402,0.83 -1.252,3.065 1.146,2.226 1.146,2.228 3.244,1.042 4.988,-2.822 9.976,-5.641 14.958,-8.47 0.524,-0.297 1.016,-0.655 1.524,-0.985 -0.063,-0.182 -0.125,-0.365 -0.188,-0.549 m -4.605,-3.645 c -5.508,1.814 -11.013,3.642 -16.505,5.503 -0.602,0.204 -1.724,0.274 -1.155,1.415 0.403,0.807 0.501,2.275 1.962,1.791 6.305,-2.088 12.591,-4.238 18.881,-6.373 0.138,-0.047 0.247,-0.184 0.443,-0.336 -0.952,-2.752 -1.08,-2.839 -3.626,-2 m 0.668,-3.576 c -0.43,-1.163 -1.19,-1.284 -2.281,-0.911 -5.648,1.928 -11.315,3.797 -16.972,5.698 -0.726,0.244 -1.725,0.37 -1.202,1.567 0.414,0.941 0.678,2.113 2.227,1.586 5.848,-1.992 11.71,-3.946 17.584,-5.862 1.308,-0.428 1.439,-1.064 0.644,-2.078 m -3.489,-5.803 c -0.21,-0.297 -0.993,-0.517 -1.29,-0.352 -5.507,3.072 -10.98,6.206 -16.457,9.335 -0.075,0.044 -0.101,0.18 -0.006,0.727 6.446,-2.146 12.891,-4.293 19.543,-6.507 -0.695,-1.283 -1.157,-2.306 -1.79,-3.203 m 28.568,74.617 c -1.303,0.587 -2.595,1.2 -3.911,1.753 -0.779,0.326 -1.582,0.619 -2.398,0.825 -12.475,3.139 -23.199,-0.02 -31.24,-10.257 -7.777,-9.901 -8.624,-21.007 -3.318,-32.509 0.538,-1.168 0.511,-2.045 -0.051,-3.159 -2.978,-5.893 -5.882,-11.827 -8.82,-17.742 -0.845,-1.701 -1.447,-3.526 -0.41,-5.241 0.927,-1.533 1.393,-3.136 1.882,-4.827 0.781,-2.709 2.824,-4.558 5.124,-5.944 3.575,-2.158 7.306,-3.762 11.506,-1.605 0.301,0.154 0.72,0.17 1.065,0.118 3.607,-0.546 4.781,0.033 6.619,3.174 3.358,5.741 6.757,11.456 10.109,17.2 0.587,1.003 1.302,1.481 2.491,1.639 11.189,1.495 19.295,7.388 23.978,17.941 6.249,14.081 0.663,31.014 -12.626,38.634" /></g><g
           transform="translate(31.3667,87.355)"
           id="g24"><path
             id="path26"
             style="fill:#25852d;fill-opacity:1;fill-rule:nonzero;stroke:none"
             d="M 0,0 -2.585,-0.714 -5.377,9.83 -2.793,10.544 Z" /></g><g
           transform="translate(63.3931,71.4224)"
           id="g28"><path
             id="path30"
             style="fill:#25852d;fill-opacity:1;fill-rule:nonzero;stroke:none"
             d="M 0,0 -1.187,2.451 10.42,8.317 11.607,5.866 Z" /></g><g
           transform="translate(51.0313,85.7954)"
           id="g32"><path
             id="path34"
             style="fill:#25852d;fill-opacity:1;fill-rule:nonzero;stroke:none"
             d="m 0,0 -2.452,1.098 5.2,12.114 2.451,-1.098 z" /></g></g></g></g></svg>